<svg width="36" height="36" viewBox="0 0 36 36" fill="none" xmlns="http://www.w3.org/2000/svg">
    <path
        d="M11.3046 9.39541C10.7774 8.8682 9.92261 8.8682 9.39541 9.39541C8.8682 9.92261 8.8682 10.7774 9.39541 11.3046L16.0908 18L9.39541 24.6954C8.8682 25.2226 8.8682 26.0774 9.39541 26.6046C9.92261 27.1318 10.7774 27.1318 11.3046 26.6046L18 19.9092L24.6954 26.6046C25.2226 27.1318 26.0774 27.1318 26.6046 26.6046C27.1318 26.0774 27.1318 25.2226 26.6046 24.6954L19.9092 18L26.6046 11.3046C27.1318 10.7774 27.1318 9.92261 26.6046 9.39541C26.0774 8.8682 25.2226 8.8682 24.6954 9.39541L18 16.0908L11.3046 9.39541Z"
        fill="#64748B" />
</svg>